<?xml version="1.0" encoding="utf-8"?>
<!-- Generator: Adobe Illustrator 18.1.1, SVG Export Plug-In . SVG Version: 6.00 Build 0)  -->
<!DOCTYPE svg PUBLIC "-//W3C//DTD SVG 1.1//EN" "http://www.w3.org/Graphics/SVG/1.1/DTD/svg11.dtd">
<svg version="1.1" id="Layer_1" xmlns="http://www.w3.org/2000/svg" xmlns:xlink="http://www.w3.org/1999/xlink" x="0px" y="0px"
	 viewBox="0 0 216 216" enable-background="new 0 0 216 216" xml:space="preserve">
<g id="gift">
	<g id="bow">
		<path fill="#FFFFFF" stroke="#000000" stroke-miterlimit="10" d="M97.6,75.4c0,0,12.1-26.4,25,0"/>
		<path fill="#FFFFFF" stroke="#000000" stroke-miterlimit="10" d="M97.6,19.2c7,9.3,9.7,37.1,4.2,41.7s-31.3-1.3-38.7-10.3
			c-7.4-9-16.3-25.6-2.2-38.3C66.2,7.5,81.7-1.6,97.6,19.2z M68.4,21.4c-6.5,4.6-5.4,13.7,2,22.6c7.4,9,25.9,21.4,31.4,16.8
			s-2.4-27.2-10.7-35.3C79.2,13.9,74.3,17.3,68.4,21.4z"/>
		<path fill="#FFFFFF" stroke="#000000" stroke-miterlimit="10" d="M175.1,28.5c9.2,16.6-4.5,29.4-14.4,35.6s-36.2,3.4-40-2.7
			c-3.8-6.1,7.7-31.6,17.4-38.1C159.8,8.6,171.6,22.3,175.1,28.5z M142.2,31.4c-10.5,5.1-25.3,23.9-21.5,30
			c3.8,6.1,25.3,0.3,35.1-5.8s13.9-14.4,9.1-20.8C160.8,29,157.3,24.1,142.2,31.4z"/>
	</g>
	<path id="top-horizontal" fill="#FFFFFF" stroke="#000000" stroke-width="2" stroke-miterlimit="10" d="M198.7,126.1
		c-2.5,0-5,0-7.4,0c-6.6,0-13.1,0-19.7,0c-9.3,0-18.6,0-28,0c-10.7,0-21.5,0-32.2,0c-10.9,0-21.7,0-32.6,0c-9.7,0-19.5,0-29.2,0
		c-7.2,0-14.5,0-21.7,0c-2.3,0-4.5,0-6.8,0c-1.1,0-2.4,0.2-3.4,0c-0.2,0-0.3,0-0.3-0.1c-0.1-0.1,0-0.7,0-0.8c0-0.5,0-1.1,0-1.6
		c0-4.2,0-8.4,0-12.5c0-9.3,0-18.7,0-28c0-0.2-0.2-1.6,0-1.7c0.1-0.1,0.5,0,0.5,0c1.3,0,2.6,0,3.8,0c5.7,0,11.4,0,17.1,0
		c8.7,0,17.5,0,26.2,0c10.5,0,21,0,31.5,0c11,0,22,0,33,0c10.1,0,20.3,0,30.4,0c8,0,15.9,0,23.9,0c4.4,0,8.9,0,13.3,0
		c0.3,0,1.4-0.2,1.6,0.1c0.1,0.1,0,0.7,0,0.9c0,0.6,0,1.2,0,1.7c0,1.8,0,3.6,0,5.4c0,10.1,0,20.3,0,30.4
		C198.7,121.9,198.7,124,198.7,126.1z"/>
	<path id="bottom-left" fill="#FFFFFF" stroke="#000000" stroke-width="2" stroke-miterlimit="10" d="M85.6,207.5
		c-2.6,0-5.2,0-7.8,0c-6,0-12,0-18,0c-6.8,0-13.7,0-20.5,0c-5,0-10,0-15,0c-0.7,0-1.3,0-2,0c-0.2,0-0.8,0.1-1,0
		c-0.2-0.1-0.1-0.8-0.1-1.1c0-3.6,0-7.3,0-10.9c0-6.2,0-12.3,0-18.5c0-6.9,0-13.8,0-20.6c0-5.9,0-11.8,0-17.7c0-3.1-0.2-6.2,0-9.3
		c0-0.5,0-0.4,0.6-0.4c1.4,0,2.7,0,4.1,0c5.4,0,10.8,0,16.3,0c6.9,0,13.8,0,20.7,0c5.7,0,11.3,0,17,0c1.6,0,3.2,0,4.7,0
		c0.4,0,0.9-0.1,1.1,0.2c0.1,0.2,0,0.7,0,1c0,0.6,0,1.2,0,1.8c0,1.8,0,3.7,0,5.5c0,5.7,0,11.4,0,17.1c0,6.9,0,13.7,0,20.6
		c0,6.3,0,12.6,0,18.9c0,3.9,0,7.9,0,11.8C85.6,206.4,85.6,206.9,85.6,207.5z"/>
	<path id="bottom-right" fill="#FFFFFF" stroke="#000000" stroke-width="2" stroke-miterlimit="10" d="M195.6,207.5
		c-2.6,0-5.2,0-7.7,0c-6,0-11.9,0-17.9,0c-6.6,0-13.2,0-19.7,0c-4.5,0-9.1,0-13.6,0c-0.3,0-1.7,0.2-1.9,0c-0.2-0.2,0-1.6,0-1.8
		c0-3.9,0-7.9,0-11.8c0-6.1,0-12.3,0-18.4c0-6.7,0-13.5,0-20.2c0-5.7,0-11.3,0-17c0-2.9-0.2-6,0-8.9c0-0.5,0-0.4,0.6-0.4
		c1.4,0,2.7,0,4.1,0c5.4,0,10.8,0,16.1,0c6.7,0,13.4,0,20.1,0c5.3,0,10.5,0,15.8,0c1.2,0,2.5-0.1,3.8,0c0.5,0,0.4,0,0.4,0.6
		c0,3.1,0,6.3,0,9.4c0,5.8,0,11.5,0,17.3c0,6.7,0,13.4,0,20.2c0,6.1,0,12.1,0,18.2c0,3.8,0,7.6,0,11.4
		C195.6,206.4,195.6,206.9,195.6,207.5z"/>
	<path id="middle-vertical" fill="#FFFFFF" stroke="#000000" stroke-width="2" stroke-miterlimit="10" d="M131.4,209.9
		c-4.9,0-9.9,0-14.8,0c-7.7,0-15.5,0-23.2,0c-1.1,0-2.3,0-3.4,0c-0.2,0-1.2,0.2-1.4,0c-0.2-0.1,0-1.2,0-1.4c0-3.7,0-7.4,0-11.1
		c0-6.4,0-12.8,0-19.2c0-8,0-16,0-24c0-8.4,0-16.9,0-25.3c0-7.7,0-15.5,0-23.2c0-5.9,0-11.8,0-17.7c0-1.9,0-3.8,0-5.7c0-1-0.1-2,0-3
		c0-0.1,0-0.3,0-0.4c0.1-0.1,1.1,0,1.3,0c2.7,0,5.3,0,8,0c8,0,16.1,0,24.1,0c2.7,0,5.4,0,8.2,0c0.2,0,1.2-0.1,1.3,0c0,0,0,0.3,0,0.3
		c0.2,0.9,0,2,0,2.9c0,1.9,0,3.8,0,5.7c0,5.8,0,11.7,0,17.5c0,7.8,0,15.5,0,23.3c0,8.4,0,16.8,0,25.2c0,8,0,16,0,24
		c0,6.4,0,12.9,0,19.3c0,3.7,0,7.5,0,11.2C131.4,208.9,131.4,209.4,131.4,209.9z"/>
</g>
</svg>
