<?xml version="1.0" encoding="utf-8"?>
<!-- Generator: Adobe Illustrator 18.1.1, SVG Export Plug-In . SVG Version: 6.00 Build 0)  -->
<!DOCTYPE svg PUBLIC "-//W3C//DTD SVG 1.1//EN" "http://www.w3.org/Graphics/SVG/1.1/DTD/svg11.dtd">
<svg version="1.1" id="Layer_1" xmlns="http://www.w3.org/2000/svg" xmlns:xlink="http://www.w3.org/1999/xlink" x="0px" y="0px"
	 viewBox="0 0 216 216" enable-background="new 0 0 216 216" xml:space="preserve">
<g id="gift">
	<g>
		<path d="M97.7,75.6c0,0,12-26.3,24.9,0"/>
		<g>
			<path d="M97.7,19.7c7,9.2,9.6,37,4.1,41.5c-5.5,4.5-31.2-1.3-38.5-10.3s-16.2-25.5-2.2-38.1C66.4,8,81.9-1,97.7,19.7z"/>
			<path fill="#FFFFFF" d="M91.1,26c8.3,8.1,16.2,30.6,10.7,35.1c-5.5,4.5-23.9-7.8-31.2-16.8c-7.3-8.9-8.5-18-1.9-22.5
				C74.5,17.8,79.3,14.4,91.1,26z"/>
		</g>
		<g>
			<path d="M137.9,23.7c-9.6,6.5-21,31.9-17.3,37.9c3.7,6,29.9,8.8,39.8,2.7c9.8-6.1,23.5-18.9,14.3-35.4
				C171.3,22.7,159.6,9.1,137.9,23.7z"/>
			<path fill="#FFFFFF" d="M142.1,31.8c-10.4,5-25.2,23.8-21.4,29.8c3.7,6,25.1,0.3,35-5.8s13.8-14.3,9.1-20.7
				C160.5,29.4,157,24.5,142.1,31.8z"/>
		</g>
	</g>
	<rect x="17.8" y="81.4" stroke="#FFFFFF" stroke-width="5.9236" stroke-miterlimit="10" width="180.5" height="44.6"/>
	<rect x="21.6" y="128.8" width="64.1" height="78.2"/>
	<rect x="134.7" y="128.8" width="60.5" height="78.2"/>
	<rect x="88.6" y="79" stroke="#FFFFFF" stroke-width="5.9236" stroke-miterlimit="10" width="42.6" height="130.3"/>
</g>
</svg>
