<?xml version="1.0" encoding="utf-8"?>
<!-- Generator: Adobe Illustrator 18.1.1, SVG Export Plug-In . SVG Version: 6.00 Build 0)  -->
<!DOCTYPE svg PUBLIC "-//W3C//DTD SVG 1.1//EN" "http://www.w3.org/Graphics/SVG/1.1/DTD/svg11.dtd">
<svg version="1.1" id="Layer_1" xmlns="http://www.w3.org/2000/svg" xmlns:xlink="http://www.w3.org/1999/xlink" x="0px" y="0px"
	 viewBox="0 0 216 216" enable-background="new 0 0 216 216" xml:space="preserve">
<g id="occasions">
	<g id="ballon-03">
		<path d="M211.6,46.3c2.2,19-13.3,38.4-25.3,38.4c-14.6,0-26.2-21.5-26.2-36.8c0-18.3,15.5-28.6,27.2-26.8
			C197.7,22.7,209.4,27.7,211.6,46.3z"/>
		<path class="string" fill="none" stroke="#000000" stroke-width="9" stroke-miterlimit="10" d="M188.5,82.8
			c0,0,12.9,13.7,0,25c-12.9,11.3,0,25.1,0,25.1"/>
	</g>
	<g id="ballon-01">
		<path d="M64.9,94.8c1.9,23.8-16.8,44.2-31,44.2c-15.8,0-29.8-24.3-29.8-42.2S21.5,65.1,34,65.1S63.3,74.1,64.9,94.8z"/>
		<path class="string" fill="none" stroke="#000000" stroke-width="9" stroke-miterlimit="10" d="M37.9,137.4
			c0,0,15.3,16.2,0,29.5s0,29.7,0,29.7"/>
	</g>
	<g id="ballon-02">
		<path d="M154.7,58.5c2.9,35.1-24.7,65.1-45.6,65.1c-23.3,0-43.9-35.7-43.9-62.3c0-33.5,26.5-48.5,44.9-48.5S152,25.2,154.7,58.5z"
			/>
		<path class="string" fill="none" stroke="#000000" stroke-width="9" stroke-miterlimit="10" d="M115.9,121.7
			c0,0,21,22.2,0,40.6s0,40.9,0,40.9"/>
		<path id="moon" fill="#FFFFFF" d="M83.2,91.5c0,0-16.4-53.2,26.6-64.8c0,0-19-7.2-32.6,16.1c-1.2,2.1-2.9,7.3-3,9.8
			C73.9,59,75.3,78.2,83.2,91.5z"/>
	</g>
</g>
</svg>
