<?xml version="1.0" encoding="utf-8"?>
<!-- Generator: Adobe Illustrator 18.1.1, SVG Export Plug-In . SVG Version: 6.00 Build 0)  -->
<!DOCTYPE svg PUBLIC "-//W3C//DTD SVG 1.1//EN" "http://www.w3.org/Graphics/SVG/1.1/DTD/svg11.dtd">
<svg version="1.1" id="Layer_1" xmlns="http://www.w3.org/2000/svg" xmlns:xlink="http://www.w3.org/1999/xlink" x="0px" y="0px"
	 viewBox="0 0 216 216" enable-background="new 0 0 216 216" xml:space="preserve">
<g id="people">
	<g>
		<circle cx="35" cy="28.7" r="14.2"/>
		<path d="M13.9,47.1C11.6,48.3,6,51.6,3.8,58.1c-0.2,0.4-0.2,0.9-0.2,1.4v51.8c0,0,4.2,9.1,9.5,0l0.4-44.5h4.4V185
			c0,0,7.7,15.7,15.7,0V116h4.4l-0.7-69.3H15.8C15.2,46.7,14.5,46.9,13.9,47.1z"/>
		<path d="M58.7,47.1c2.3,1.1,7.9,4.4,10.1,10.9c0.2,0.4,0.2,0.9,0.2,1.4v51.8c0,0-4.2,9.1-9.5,0l-0.4-44.5h-4.4V185
			c0,0-7.7,15.7-15.7,0V116h-4.4l-0.4-69.3h22.4C57.5,46.7,58.1,46.9,58.7,47.1z"/>
	</g>
	<g>
		<circle cx="106.5" cy="28.9" r="14.2"/>
		<path d="M85.5,47.4c-2.3,1.1-7.9,4.4-10.1,10.9c-0.2,0.4-0.2,0.9-0.2,1.4v51.8c0,0,4.2,9.1,9.5,0L85,67h4.4v118.2
			c0,0,7.7,15.7,15.7,0v-68.9h4.4L108.7,47H87.4C86.7,47,86.1,47.1,85.5,47.4z"/>
		<path d="M130.3,47.4c2.3,1.1,7.9,4.4,10.1,10.9c0.2,0.4,0.2,0.9,0.2,1.4v51.8c0,0-4.2,9.1-9.5,0L130.8,67h-4.4v118.2
			c0,0-7.7,15.7-15.7,0v-68.9h-4.4L106,47h22.4C129.1,47,129.7,47.1,130.3,47.4z"/>
	</g>
	<g id="one-person">
		<circle cx="178.3" cy="28.7" r="14.2"/>
		<path d="M157.3,47.1c-2.3,1.1-7.9,4.4-10.1,10.9c-0.2,0.4-0.2,0.9-0.2,1.4v51.8c0,0,4.2,9.1,9.5,0l0.4-44.5h4.4V185
			c0,0,7.7,15.7,15.7,0V116h4.4l-0.7-69.3h-21.3C158.5,46.7,157.9,46.9,157.3,47.1z"/>
		<path d="M202.1,47.1c2.3,1.1,7.9,4.4,10.1,10.9c0.2,0.4,0.2,0.9,0.2,1.4v51.8c0,0-4.2,9.1-9.5,0l-0.4-44.5h-4.4V185
			c0,0-7.7,15.7-15.7,0V116h-4.4l-0.4-69.3h22.4C200.8,46.7,201.5,46.9,202.1,47.1z"/>
	</g>
</g>
</svg>
